<?xml version="1.0" standalone="no"?>
<!DOCTYPE svg PUBLIC "-//W3C//DTD SVG 20010904//EN"
 "http://www.w3.org/TR/2001/REC-SVG-20010904/DTD/svg10.dtd">
<svg version="1.0" xmlns="http://www.w3.org/2000/svg"
 width="1421.000000pt" height="1421.000000pt" viewBox="0 0 1421.000000 1421.000000"
 preserveAspectRatio="xMidYMid meet">

<g transform="translate(0.000000,1421.000000) scale(0.100000,-0.100000)"
fill="#000000" stroke="none">
<path d="M0 7105 l0 -7105 7105 0 7105 0 0 7105 0 7105 -7105 0 -7105 0 0
-7105z m7395 2895 c628 -74 1231 -371 1670 -822 144 -148 158 -163 260 -300
189 -252 319 -501 423 -813 172 -512 187 -1095 43 -1625 -31 -115 -79 -256
-106 -317 -8 -17 -15 -34 -15 -37 0 -11 -83 -182 -128 -261 -331 -594 -852
-1047 -1483 -1290 -124 -47 -134 -51 -204 -71 -471 -133 -944 -148 -1420 -47
-796 171 -1515 723 -1897 1459 -157 303 -264 640 -297 939 -34 303 -34 472 0
755 21 178 89 441 157 615 11 28 30 74 41 103 32 80 127 268 179 352 339 551
823 959 1417 1192 81 32 136 50 315 101 95 27 251 55 370 66 63 6 131 13 150
15 60 7 430 -3 525 -14z"/>
<path d="M6965 9683 c-113 -3 -324 -30 -430 -55 -368 -86 -591 -181 -890 -381
-377 -252 -718 -670 -890 -1092 -88 -214 -151 -454 -175 -660 -13 -114 -13
-440 0 -565 39 -381 181 -774 399 -1105 245 -371 600 -680 1004 -873 49 -23
90 -42 93 -42 2 0 23 -9 47 -19 73 -34 294 -103 372 -116 22 -4 61 -13 87 -20
158 -45 563 -55 813 -20 391 54 776 206 1090 429 848 603 1229 1630 979 2639
-106 426 -318 808 -623 1121 -268 275 -574 476 -914 600 -220 81 -377 118
-587 140 -164 17 -259 22 -375 19z m174 -1153 c20 -12 47 -38 61 -58 l25 -37
5 -530 5 -530 535 -5 c294 -3 536 -7 537 -8 1 -1 18 -16 38 -33 81 -71 86
-188 12 -257 -53 -50 -82 -52 -623 -52 l-503 0 -3 -532 -3 -533 -23 -32 c-41
-58 -80 -78 -149 -78 -53 0 -66 4 -99 30 -77 63 -74 36 -74 622 l0 523 -503 0
c-551 0 -577 2 -629 57 -74 78 -60 209 29 264 l38 24 530 5 530 5 5 530 c5
513 6 531 25 563 12 17 36 43 55 57 44 33 125 35 179 5z"/>
</g>
</svg>
